<svg xmlns="http://www.w3.org/2000/svg" xmlns:xlink="http://www.w3.org/1999/xlink" viewBox="0 0 105.67 66.25"><defs><style>.cls-1{fill:none;}.cls-2{fill:#b0b8c1;}.cls-3{opacity:0.04;}.cls-4{clip-path:url(#clip-path);}.cls-5{fill:#f1f1f2;}.cls-6{fill:#b84c46;}.cls-7{opacity:0.22;}.cls-8{fill:#f16a63;}.cls-9{fill:#dce1e7;}</style><clipPath id="clip-path"><rect class="cls-1" x="23.17" width="59.34" height="38.76" rx="1.45"/></clipPath></defs><title>Asset 5</title><g id="Layer_2" data-name="Layer 2"><g id="Layer_1-2" data-name="Layer 1"><polygon class="cls-2" points="80.8 9.44 24.87 9.44 10.35 27.35 95.33 27.35 80.8 9.44"/><ellipse class="cls-3" cx="52.84" cy="56.36" rx="52.84" ry="9.89"/><g class="cls-4"><rect class="cls-5" x="23.17" width="49.22" height="38.76"/><rect class="cls-6" x="72.39" width="10.11" height="38.76"/><polygon class="cls-7" points="82.5 0 73.96 0 72.39 1.57 72.39 13.37 82.5 3.25 82.5 0"/><polygon class="cls-8" points="72.39 10.11 82.5 0 72.39 0 72.39 10.11"/><path class="cls-9" d="M23.17,0,46.94,23.77a8.34,8.34,0,0,0,11.8,0L72.39,10.11V0Z"/></g><path class="cls-9" d="M70.77,31.18v.71a3.83,3.83,0,0,1-3.83,3.83H38.74a3.82,3.82,0,0,1-3.83-3.83v-.71a3.83,3.83,0,0,0-3.83-3.83H10.35v25.8a5.73,5.73,0,0,0,5.73,5.73H89.59a5.73,5.73,0,0,0,5.74-5.73V27.35H74.6A3.82,3.82,0,0,0,70.77,31.18Z"/></g></g></svg>