<?xml version="1.0" encoding="UTF-8"?>
<svg width="218px" height="34px" viewBox="0 0 218 34" version="1.1" xmlns="http://www.w3.org/2000/svg" xmlns:xlink="http://www.w3.org/1999/xlink">
    <!-- Generator: Sketch 53.2 (72643) - https://sketchapp.com -->
    <title>redlogo</title>
    <desc>Created with Sketch.</desc>
    <g id="Page-2" stroke="none" stroke-width="1" fill="none" fill-rule="evenodd">
        <g id="Artboard" transform="translate(-92.000000, -57.000000)">
            <g id="redlogo" transform="translate(92.000000, 47.000000)">
                <path d="M38.843,14.013 L38.843,43 L31.832,43 L31.832,14.013 L38.843,14.013 Z M58.195,19.876 C60.8190131,19.876 62.9031589,20.7506579 64.4475,22.5 C65.9918411,24.2493421 66.764,26.6546514 66.764,29.716 L66.764,43 L59.753,43 L59.753,30.536 C59.753,29.0053257 59.3498374,27.8095043 58.5435,26.9485 C57.7371626,26.0874957 56.66434,25.657 55.325,25.657 C53.9036596,25.657 52.7761708,26.1079955 51.9425,27.01 C51.1088292,27.9120045 50.692,29.1966583 50.692,30.864 L50.692,43 L43.681,43 L43.681,20.122 L50.692,20.122 L50.692,24.304 C51.3480033,22.9373265 52.3251602,21.8576706 53.6235,21.065 C54.9218398,20.2723294 56.4456579,19.876 58.195,19.876 Z M81.975,36.153 L86.936,20.122 L94.398,20.122 L86.28,43 L77.588,43 L69.47,20.122 L76.932,20.122 L81.975,36.153 Z M96.653,13.685 C96.653,12.6189947 97.0356628,11.7375035 97.801,11.0405 C98.5663372,10.3434965 99.5776604,9.995 100.835,9.995 C102.09234,9.995 103.103663,10.3434965 103.869,11.0405 C104.634337,11.7375035 105.017,12.6189947 105.017,13.685 C105.017,14.7236719 104.634337,15.5914965 103.869,16.2885 C103.103663,16.9855035 102.09234,17.334 100.835,17.334 C99.5776604,17.334 98.5663372,16.9855035 97.801,16.2885 C97.0356628,15.5914965 96.653,14.7236719 96.653,13.685 Z M104.32,20.122 L104.32,43 L97.309,43 L97.309,20.122 L104.32,20.122 Z M122.114,36.973 L122.114,43 L118.957,43 C116.27832,43 114.194174,42.3371733 112.7045,41.0115 C111.214826,39.6858267 110.47,37.4923486 110.47,34.431 L110.47,26.026 L107.395,26.026 L107.395,20.122 L110.47,20.122 L110.47,14.505 L117.481,14.505 L117.481,20.122 L122.073,20.122 L122.073,26.026 L117.481,26.026 L117.481,34.554 C117.481,35.4560045 117.665498,36.0846649 118.0345,36.44 C118.403502,36.7953351 119.025329,36.973 119.9,36.973 L122.114,36.973 Z M147.78,30.946 C147.78,31.5200029 147.711667,32.1486632 147.575,32.832 L131.708,32.832 C131.79,34.5540086 132.227329,35.7908296 133.02,36.5425 C133.812671,37.2941704 134.823994,37.67 136.054,37.67 C137.092672,37.67 137.953663,37.4103359 138.637,36.891 C139.320337,36.3716641 139.771332,35.7020041 139.99,34.882 L147.411,34.882 C147.110332,36.4946747 146.454338,37.9364936 145.443,39.2075 C144.431662,40.4785064 143.147008,41.476163 141.589,42.2005 C140.030992,42.924837 138.295343,43.287 136.382,43.287 C134.140655,43.287 132.152175,42.8155047 130.4165,41.8725 C128.680825,40.9294953 127.321005,39.5696755 126.337,37.793 C125.352995,36.0163244 124.861,33.9390119 124.861,31.561 C124.861,29.1556546 125.346162,27.0715088 126.3165,25.3085 C127.286838,23.5454912 128.646658,22.1925047 130.396,21.2495 C132.145342,20.3064953 134.140655,19.835 136.382,19.835 C138.650678,19.835 140.645991,20.299662 142.368,21.229 C144.090009,22.158338 145.422495,23.4634916 146.3655,25.1445 C147.308505,26.8255084 147.78,28.7593224 147.78,30.946 Z M140.687,29.88 C140.714333,28.3766591 140.311171,27.2491704 139.4775,26.4975 C138.643829,25.7458296 137.612006,25.37 136.382,25.37 C135.097327,25.37 134.031338,25.7526628 133.184,26.518 C132.336662,27.2833372 131.858334,28.4039926 131.749,29.88 L140.687,29.88 Z M181.072,19.876 C183.887347,19.876 186.101325,20.7438247 187.714,22.4795 C189.326675,24.2151753 190.133,26.6273179 190.133,29.716 L190.133,43 L183.163,43 L183.163,30.536 C183.163,29.0873261 182.773504,27.9598374 181.9945,27.1535 C181.215496,26.3471626 180.15634,25.944 178.817,25.944 C177.422993,25.944 176.322837,26.3744957 175.5165,27.2355 C174.710163,28.0965043 174.307,29.3059922 174.307,30.864 L174.307,43 L167.296,43 L167.296,30.536 C167.296,29.0873261 166.913337,27.9598374 166.148,27.1535 C165.382663,26.3471626 164.33034,25.944 162.991,25.944 C161.596993,25.944 160.490004,26.3676624 159.67,27.215 C158.849996,28.0623376 158.44,29.2786587 158.44,30.864 L158.44,43 L151.429,43 L151.429,20.122 L158.44,20.122 L158.44,24.017 C159.041336,22.7323269 159.963827,21.7210037 161.2075,20.983 C162.451173,20.2449963 163.906658,19.876 165.574,19.876 C167.323342,19.876 168.86766,20.2791626 170.207,21.0855 C171.54634,21.8918374 172.557663,23.0466592 173.241,24.55 C174.033671,23.1286596 175.12016,21.9943376 176.5005,21.147 C177.88084,20.2996624 179.404658,19.876 181.072,19.876 Z M205.508,19.835 C207.776678,19.835 209.806158,20.3064953 211.5965,21.2495 C213.386842,22.1925047 214.794495,23.5523245 215.8195,25.329 C216.844505,27.1056756 217.357,29.1829881 217.357,31.561 C217.357,33.9390119 216.844505,36.0163244 215.8195,37.793 C214.794495,39.5696755 213.386842,40.9294953 211.5965,41.8725 C209.806158,42.8155047 207.776678,43.287 205.508,43.287 C203.239322,43.287 201.203009,42.8155047 199.399,41.8725 C197.594991,40.9294953 196.180505,39.5696755 195.1555,37.793 C194.130495,36.0163244 193.618,33.9390119 193.618,31.561 C193.618,29.1829881 194.130495,27.1056756 195.1555,25.329 C196.180505,23.5523245 197.594991,22.1925047 199.399,21.2495 C201.203009,20.3064953 203.239322,19.835 205.508,19.835 Z M205.508,25.903 C204.16866,25.903 203.041171,26.3881618 202.1255,27.3585 C201.209829,28.3288382 200.752,29.7296575 200.752,31.561 C200.752,33.3923425 201.209829,34.7863286 202.1255,35.743 C203.041171,36.6996714 204.16866,37.178 205.508,37.178 C206.84734,37.178 207.967995,36.6996714 208.87,35.743 C209.772005,34.7863286 210.223,33.3923425 210.223,31.561 C210.223,29.7296575 209.772005,28.3288382 208.87,27.3585 C207.967995,26.3881618 206.84734,25.903 205.508,25.903 Z" id="Invitemo" fill="#FFFFFF" fill-rule="nonzero"></path>
                <g id="Group" transform="translate(0.000000, 14.000000)">
                    <rect id="Rectangle" fill="#FF6B62" x="0" y="0" width="39" height="29"></rect>
                    <g id="logo" transform="translate(31.000000, 0.000000)">
                        <rect id="Rectangle" fill="#FFFFFF" x="0" y="0" width="8" height="29"></rect>
                        <polyline id="Path-2" fill="#D8D8D8" points="8 0 0 8 0 29 8 29 8 0"></polyline>
                    </g>
                    <polyline id="Path-3" fill="#CC554E" points="31 8 19.7329102 19.2670898 0.465820312 1.413637e-15 31 3.55271368e-15"></polyline>
                </g>
                <rect id="Rectangle" fill-opacity="0.1" fill="#000000" x="0" y="14" width="31" height="29"></rect>
            </g>
        </g>
    </g>
</svg>