<svg xmlns="http://www.w3.org/2000/svg" viewBox="0 0 263.85 48.86"><defs><style>.cls-1,.cls-2{fill:#fff;}.cls-1{fill-rule:evenodd;}</style></defs><title>Asset 2</title><g id="Layer_2" data-name="Layer 2"><g id="Layer_1-2" data-name="Layer 1"><path class="cls-1" d="M80.66,14.85l-7,23.5L66.6,14.85H56.12L67.53,48.38h12.2L91.14,14.85ZM95.23,48.38h9.84V14.85H95.23ZM33.86,16.23A10.87,10.87,0,0,0,29.75,21V14.85H19.9V48.38h9.85V30.59a8.27,8.27,0,0,1,1.75-5.65,6,6,0,0,1,4.75-2,5.78,5.78,0,0,1,4.52,1.89,7.58,7.58,0,0,1,1.7,5.26V48.38h9.85V28.91q0-6.73-3.25-10.58a10.93,10.93,0,0,0-8.79-3.85A11.74,11.74,0,0,0,33.86,16.23Zm172.6.12a13.19,13.19,0,0,0-4.58,5,11,11,0,0,0-4.26-5.08,12,12,0,0,0-6.51-1.78A11.43,11.43,0,0,0,185,16.11a9.85,9.85,0,0,0-3.89,4.45V14.85h-9.84V48.38h9.84V30.59a7.62,7.62,0,0,1,1.73-5.35,6.06,6.06,0,0,1,4.67-1.86,5.68,5.68,0,0,1,4.43,1.77,7.1,7.1,0,0,1,1.61,5V48.38h9.85V30.59a7.72,7.72,0,0,1,1.7-5.32,5.92,5.92,0,0,1,4.64-1.89,5.78,5.78,0,0,1,4.46,1.77,7.07,7.07,0,0,1,1.64,5V48.38h9.79V28.91q0-6.8-3.4-10.61a11.85,11.85,0,0,0-9.33-3.82A11.69,11.69,0,0,0,206.46,16.35Zm-60.84,7.87a6.3,6.3,0,0,1,4.49-1.68,6.11,6.11,0,0,1,4.35,1.65,6.34,6.34,0,0,1,1.7,5H143.6A7.23,7.23,0,0,1,145.62,24.22ZM141.7,16.5A14.3,14.3,0,0,0,136,22.45a19.41,19.41,0,0,0-2,9.16A19.23,19.23,0,0,0,136,40.75a14.51,14.51,0,0,0,5.73,6,16.72,16.72,0,0,0,8.38,2.07,16.51,16.51,0,0,0,7.31-1.59,14.76,14.76,0,0,0,5.42-4.39,14.43,14.43,0,0,0,2.76-6.34H155.18a5.34,5.34,0,0,1-1.9,3,5.67,5.67,0,0,1-3.63,1.14,5.8,5.8,0,0,1-4.26-1.65c-1.12-1.1-1.73-2.92-1.85-5.44h22.29a15,15,0,0,0,.29-2.77,17.61,17.61,0,0,0-2-8.5,14,14,0,0,0-5.61-5.74,18.24,18.24,0,0,0-16.82,0ZM242.46,37.75c-1.29-1.41-1.93-3.45-1.93-6.14a8.89,8.89,0,0,1,1.93-6.16,6.15,6.15,0,0,1,4.75-2.13,6.07,6.07,0,0,1,4.72,2.13,9,9,0,0,1,1.9,6.16c0,2.69-.63,4.73-1.9,6.14a6.11,6.11,0,0,1-4.72,2.1A6.19,6.19,0,0,1,242.46,37.75ZM238.63,16.5a14.73,14.73,0,0,0-6,6,18.56,18.56,0,0,0-2.16,9.13,18.58,18.58,0,0,0,2.16,9.14,14.79,14.79,0,0,0,6,6,18.75,18.75,0,0,0,17.13,0,14.91,14.91,0,0,0,5.93-6,18.58,18.58,0,0,0,2.16-9.14,18.56,18.56,0,0,0-2.16-9.13,14.84,14.84,0,0,0-5.93-6,18.75,18.75,0,0,0-17.13,0ZM113.71,6.61v8.24h-4.32V23.5h4.32V35.82q0,6.74,3.14,9.65t8.78,2.91h4.44V39.55H127a3.61,3.61,0,0,1-2.62-.78,3.89,3.89,0,0,1-.78-2.77V23.5H130V14.85h-6.45V6.61ZM95.92,1.53A5.12,5.12,0,0,0,94.3,5.41a5.06,5.06,0,0,0,1.62,3.82,6.7,6.7,0,0,0,8.52,0,5.05,5.05,0,0,0,1.61-3.82,5.11,5.11,0,0,0-1.61-3.88,6.7,6.7,0,0,0-8.52,0Z"/><path class="cls-2" d="M0,48.86H8.56a3.26,3.26,0,0,0,3.26-3.26V15.68L0,27.5Z"/><path class="cls-2" d="M8.94,3.55H0V15.37L10.88,4.49A3.19,3.19,0,0,0,8.94,3.55Z"/></g></g></svg>